{"title":"Shakira - Try Everything (from Zootopia) 2016","uid":13749235,"size":104573920,"categoryP":"video","categoryS":"music_videos","magnet":"?xt=urn:btih:2a4577f428a55ee51cf2a1cfea7e59cf141e3947&amp;dn=Shakira+-+Try+Everything+%28from+Zootopia%29+2016&amp;tr=udp%3A%2F%2Ftracker.leechers-paradise.org%3A6969&amp;tr=udp%3A%2F%2Fzer0day.ch%3A1337&amp;tr=udp%3A%2F%2Fopen.demonii.com%3A1337&amp;tr=udp%3A%2F%2Ftracker.coppersurfer.tk%3A6969&amp;tr=udp%3A%2F%2Fexodus.desync.com%3A6969","seeders":25,"leechers":1,"uploader":"MeRaDil","files":1,"time":1457139395,"description":"MEDIA INFO\r\nShakira - Try Everything\r\nFormat                                   : MPEG-4\r\nFormat profile                           : Base Media\r\nCodec ID                                 : isom (isom/iso2/avc1/mp41)\r\nFile size                                : 99.7 MiB\r\nDuration                                 : 3mn 22s\r\nOverall bitrate                          : 4 134 Kbps\r\nMusicVid name                            : Try Everything\r\nPerformer                                : Shakira\r\nPublisher                                : MeRaDil\r\nGenre                                    : Soundtrack\r\nContentType                              : Music Video\r\nRecorded date                            : 2016\r\nWriting application                      : Lavf54.29.104/MeRaDil\r\nCover                                    : Yes\r\nComment                                  : from Disneys  ZOOTOPIA\r\nRating                                   : ***\r\nRelease date                             : USA/Spain - march 3 - 2016\r\n \nhttp://gifyu.com/images/SHAKIRA-1.png\r\n \nhttp://gifyu.com/images/SHAKIRA-2.png\r\n\r\nVideo\r\nID                                       : 1\r\nFormat                                   : AVC\r\nFormat/Info                              : Advanced Video Codec\r\nFormat profile                           :   \r\nFormat settings, CABAC                   : Yes\r\nFormat settings, ReFrames                : 2 frames\r\nCodec ID                                 : avc1\r\nCodec ID/Info                            : Advanced Video Coding\r\nDuration                                 : 3mn 22s\r\nBit rate                                 : 3 862 Kbps\r\nWidth                                    : 1 920 pixels\r\nHeight                                   : 1 080 pixels\r\nDisplay aspect ratio                     : 16:9\r\nFrame rate mode                          : Variable\r\nFrame rate                               : 23.976 (24000/1001) fps\r\nColor space                              : YUV\r\nChroma subsampling                       : 4:2:0\r\nBit depth                                : 8 bits\r\nScan type                                : Progressive\r\nBits/(Pixel*Frame)                       : 0.078\r\nStream size                              : 93.1 MiB (93%)\r\nColor range                              : Limited\r\n\r\nAudio\r\nID                                       : 2\r\nFormat                                   : AAC\r\nFormat/Info                              : Advanced Audio Codec\r\nFormat profile                           : LC\r\nCodec ID                                 : 40\r\nDuration                                 : 3mn 22s\r\nBit rate mode                            : Constant\r\nBit rate                                 : 256 Kbps\r\nChannel(s)                               : 2 channels\r\nChannel positions                        : Front: L R\r\nSampling rate                            : 44.1 KHz\r\nFrame rate                               : 43.066 fps (1024 spf)\r\nCompression mode                         : Lossy\r\nStream size                              : 6.18 MiB (6%)\r\nDefault                                  : Yes\r\nAlternate group                          : 1\r\n \nhttp://gifyu.com/images/SHAKIRA-3.png","torrent":{"xt":"urn:btih:2a4577f428a55ee51cf2a1cfea7e59cf141e3947","amp;dn":"Shakira+-+Try+Everything+%28from+Zootopia%29+2016","amp;tr":["udp%3A%2F%2Ftracker.leechers-paradise.org%3A6969","udp%3A%2F%2Fzer0day.ch%3A1337","udp%3A%2F%2Fopen.demonii.com%3A1337","udp%3A%2F%2Ftracker.coppersurfer.tk%3A6969","udp%3A%2F%2Fexodus.desync.com%3A6969"],"infoHash":"2a4577f428a55ee51cf2a1cfea7e59cf141e3947","infoHashBuffer":{"type":"Buffer","data":[42,69,119,244,40,165,94,229,28,242,161,207,234,126,89,207,20,30,57,71]},"announce":[],"urlList":[]}}